<?xml version="1.0" encoding="utf-8"?>
<!-- Generator: Adobe Illustrator 25.4.1, SVG Export Plug-In . SVG Version: 6.00 Build 0)  -->
<svg version="1.1" id="Слой_1" xmlns="http://www.w3.org/2000/svg" xmlns:xlink="http://www.w3.org/1999/xlink" x="0px" y="0px"
	 viewBox="0 0 2190 409" style="enable-background:new 0 0 2190 409;" xml:space="preserve">
<path d="M741.8,224h82.5c11.6,0,21,9.5,21,21.1s-9.4,21.1-21,21.1h-99.5c-1.6,0-3.1,0.6-4.2,1.6l-30,25.9c-4.6,4-1.8,11.5,4.2,11.5
	h124.5c0.1,0,0.1,0,0.1-0.1c0-0.1,0-0.1,0.1-0.1c1.6,0.1,3.2,0.2,4.7,0.2c33,0,59.8-26.9,59.8-60.1c0-31.5-24.1-57.4-54.9-59.9
	c-0.1,0-0.1,0-0.1-0.1c0-0.1,0-0.1-0.1-0.1h-88.8c-11.6,0-21-9.5-21-21.1c0-11.7,9.4-21.1,21-21.1h99.3c1.6,0,3.2-0.6,4.4-1.7
	l27.9-25.9c4.4-4,1.5-11.4-4.4-11.4H741.8c0,0,0,0,0,0c0,0,0,0,0,0c-0.5,0-1.1,0-1.6,0c-33,0-59.8,26.9-59.8,60.1
	c0,33.2,26.8,60.1,59.8,60.1C740.7,224,741.2,224,741.8,224C741.8,223.9,741.8,224,741.8,224C741.8,224,741.8,224,741.8,224z"/>
<path d="M1222,103.7c-3.6,0-6.5,2.9-6.5,6.6v188.4c0,3.6,2.9,6.6,6.5,6.6h151c1.8,0,3.5-0.8,4.8-2.1l18.9-20.3
	c3.9-4.2,0.9-11-4.8-11h-131.8c-3.6,0-6.5-2.9-6.5-6.6v-155c0-3.6-2.9-6.6-6.5-6.6H1222z"/>
<path d="M1152.9,266.2V139.5c0,0,0,0,0,0s0,0,0,0c-0.8-19.3-16.3-34.9-35.6-35.7c0,0,0,0,0,0c0,0,0,0,0,0h-137c0,0,0,0,0,0
	c0,0,0,0,0,0c-19.3,0.8-34.8,16.4-35.6,35.7c0,0,0,0,0,0c0,0,0,0,0,0c0,0,0,0,0,0v126.7c0,0,0,0,0,0c0,0,0,0,0,0c0,0.5,0,1.1,0,1.6
	c0,20.1,15.8,36.5,35.7,37.3c0,0,0,0,0,0l0,0l0,0c0,0,0,0,0,0h137c0,0,0,0,0,0v0l0,0l0,0c19.8-0.9,35.7-17.3,35.7-37.3
	C1152.9,267.3,1152.9,266.8,1152.9,266.2C1152.9,266.2,1152.9,266.2,1152.9,266.2C1152.9,266.2,1152.9,266.2,1152.9,266.2z
	 M1114,241.7C1114,241.7,1114,241.7,1114,241.7L1114,241.7L1114,241.7L1114,241.7c0,0.4,0,0.7,0,1c0,12.6-9.9,23-22.3,23.5
	c0,0,0,0,0,0l0,0v0v0h-85.9l0,0v0v0c0,0,0,0,0,0c-12.4-0.5-22.3-10.9-22.3-23.5c0-0.3,0-0.7,0-1c0,0,0,0,0,0s0,0,0,0V162
	c0,0,0,0,0,0s0,0,0,0c0.5-12.2,10.2-21.9,22.3-22.5c0,0,0,0,0,0v0l0,0h85.9v0v0l0,0c0,0,0,0,0,0c12.1,0.5,21.7,10.3,22.3,22.5
	c0,0,0,0,0,0c0,0,0,0,0,0V241.7z"/>
<path d="M1616.2,298.7c0,3.6,2.9,6.6,6.5,6.6h25.6c3.6,0,6.5-2.9,6.5-6.6V142.7c0,0,0,0,0,0l0,0v0c0,0,0,0,0,0c0-0.5,0-1.1,0-1.6
	c0-20.1-15.7-36.5-35.3-37.3c0,0,0,0,0,0c0,0,0,0,0,0h-131.5c0,0,0,0,0,0c0,0,0,0,0,0c-0.5,0-1,0-1.6,0c-20.4,0-36.9,16.7-36.9,37.4
	c0,0.5,0,1.1,0,1.6c0,0,0,0,0,0c0,0,0,0,0,0v155.9c0,3.6,2.9,6.6,6.5,6.6h25.6c3.6,0,6.5-2.9,6.5-6.6v-64.9c0-3.6,2.9-6.6,6.5-6.6
	h115.4c3.6,0,6.5,2.9,6.5,6.6V298.7z M1487.9,191.4V159c0-12.6,10.1-22.8,22.5-22.8h83.4c12.4,0,22.5,10.2,22.5,22.8v32.4
	c0,3.6-2.9,6.6-6.5,6.6h-115.4C1490.8,198,1487.9,195,1487.9,191.4z"/>
<path d="M2156.7,305.2c-3.6,0-6.5-2.9-6.5-6.6v-64.9c0-3.6-2.9-6.6-6.5-6.6H2027c-3.6,0-6.5,2.9-6.5,6.6v64.9c0,3.6-2.9,6.6-6.5,6.6
	h-25.8c-3.6,0-6.5-2.9-6.5-6.6V142.7v0l0,0c0,0,0,0,0,0s0,0,0,0c0-0.5,0-1.1,0-1.6c0-20.6,16.7-37.4,37.3-37.4c0.5,0,1.1,0,1.6,0
	c0,0,0,0,0,0c0,0,0,0,0,0h133c0,0,0,0,0,0c0,0,0,0,0,0c19.8,0.9,35.7,17.3,35.7,37.3c0,0.5,0,1.1,0,1.6c0,0,0,0,0,0c0,0,0,0,0,0
	c0,0,0,0,0,0v155.9c0,3.6-2.9,6.6-6.5,6.6H2156.7z M2020.4,159v32.4c0,3.6,2.9,6.6,6.5,6.6h116.7c3.6,0,6.5-2.9,6.5-6.6V159
	c0-12.6-10.2-22.8-22.7-22.8h-84.3C2030.6,136.2,2020.4,146.4,2020.4,159z"/>
<path d="M1751.1,103.7c1.9,0,3.7,0.8,4.9,2.3l114.8,136.9c3.9,4.6,11.4,1.8,11.4-4.3V110.3c0-3.6,2.9-6.6,6.5-6.6h25.6
	c3.6,0,6.5,2.9,6.5,6.6v188.4c0,3.6-2.9,6.6-6.5,6.6h-31.8c-0.1,0-0.2-0.1-0.2-0.2c0-0.1,0-0.1-0.1-0.2l-116.8-135.9
	c-3.9-4.6-11.3-1.7-11.3,4.3v125.5c0,3.6-2.9,6.6-6.5,6.6h-25.8c-3.6,0-6.5-2.9-6.5-6.6V110.3c0-3.6,2.9-6.6,6.5-6.6H1751.1z"/>
<path d="M85.1,312.2c3.2-3.2,7.5-5,12-5h416.5c7.6,0,11.4,9.2,6,14.5L437.3,404c-3.2,3.2-7.5,5-12,5H8.8c-7.6,0-11.4-9.2-6-14.5
	L85.1,312.2z"/>
<path d="M85.1,5c3.2-3.2,7.5-5,12-5h416.5c7.6,0,11.4,9.2,6,14.5l-82.3,82.2c-3.2,3.2-7.5,5-12,5H8.8c-7.6,0-11.4-9.2-6-14.5L85.1,5
	z"/>
<path d="M437.3,157.6c-3.2-3.2-7.5-5-12-5H8.8c-7.6,0-11.4,9.2-6,14.5l82.3,82.2c3.2,3.2,7.5,5,12,5h416.5c7.6,0,11.4-9.2,6-14.5
	L437.3,157.6z"/>
</svg>
